<svg width="24" height="24" viewBox="0 0 24 24" fill="none" xmlns="http://www.w3.org/2000/svg">
<g clip-path="url(#clip0_3692_31596)">
<path fill-rule="evenodd" clip-rule="evenodd" d="M10.19 5.80606C10.2818 5.6362 10.4182 5.49463 10.5846 5.39665C10.751 5.29866 10.9409 5.24798 11.134 5.25006L13.234 5.28206C13.4265 5.28628 13.6143 5.34288 13.7771 5.44577C13.9399 5.54866 14.0716 5.69396 14.158 5.86606L14.998 7.55406L16.482 7.42806C16.672 7.41298 16.8626 7.44941 17.0337 7.53353C17.2047 7.61766 17.3499 7.74635 17.454 7.90606L18.514 9.55006C18.6278 9.7271 18.6859 9.93426 18.6805 10.1447C18.6752 10.3551 18.6067 10.559 18.484 10.7301L17.704 11.8221L18.534 12.9181C18.792 13.2581 18.818 13.7221 18.598 14.0901L17.598 15.7661C17.4986 15.9304 17.3564 16.0647 17.1866 16.1545C17.0168 16.2444 16.8258 16.2864 16.634 16.2761L15.064 16.1801L14.098 18.1581C14.0106 18.3339 13.876 18.482 13.7093 18.5858C13.5426 18.6896 13.3504 18.7451 13.154 18.7461H10.99C10.794 18.7447 10.6021 18.6891 10.4358 18.5853C10.2695 18.4815 10.1353 18.3336 10.048 18.1581L9.13999 16.3001L7.45999 16.4521C7.26633 16.4683 7.07193 16.431 6.89804 16.3443C6.72414 16.2575 6.57745 16.1246 6.47399 15.9601L5.41199 14.2501C5.29936 14.0686 5.24475 13.857 5.25547 13.6437C5.26619 13.4303 5.34173 13.2254 5.47199 13.0561L6.43199 11.8061L5.65999 10.7281C5.5376 10.5568 5.46949 10.3528 5.46449 10.1424C5.4595 9.93196 5.51786 9.7249 5.63199 9.54806L6.69199 7.90406C6.79589 7.74466 6.94078 7.61617 7.11146 7.53206C7.28213 7.44796 7.47229 7.41135 7.66199 7.42606L9.25599 7.56206L10.19 5.80606ZM11.386 6.75406L10.442 8.53006C10.3445 8.71093 10.1966 8.85959 10.0163 8.95794C9.83589 9.0563 9.63082 9.10011 9.42599 9.08406L7.80599 8.94606L7.05799 10.1061L7.84599 11.2061C7.97708 11.389 8.0459 11.6093 8.0423 11.8344C8.0387 12.0594 7.96287 12.2774 7.82599 12.4561L6.84999 13.7241L7.60199 14.9361L9.31399 14.7801C9.52612 14.7604 9.73921 14.8057 9.92497 14.9101C10.1107 15.0144 10.2604 15.1727 10.354 15.3641L11.272 17.2461H12.872L13.848 15.2521C13.9402 15.0669 14.0846 14.9127 14.2633 14.8086C14.4421 14.7045 14.6474 14.6549 14.854 14.6661L16.45 14.7621L17.154 13.5821L16.306 12.4621C16.1711 12.2835 16.0968 12.0665 16.0939 11.8427C16.091 11.6189 16.1597 11.4001 16.29 11.2181L17.088 10.1061L16.34 8.94606L14.82 9.07406C14.6099 9.09197 14.3993 9.04622 14.2156 8.94277C14.0319 8.83933 13.8836 8.68297 13.79 8.49406L12.936 6.77806L11.386 6.75406Z" fill="#979797"/>
<path d="M20.564 14.8001C19.9573 16.673 18.7533 18.2953 17.1363 19.4184C15.5194 20.5415 13.5788 21.1034 11.6119 21.0181C9.64509 20.9327 7.76046 20.2048 6.24688 18.9459C4.73329 17.687 3.67425 15.9665 3.23205 14.0481L4.93405 13.7121L1.69405 10.3601L-0.00195312 14.6941L1.79205 14.3421C2.29272 16.5941 3.52112 18.6185 5.28743 20.1025C7.05374 21.5865 9.25962 22.4475 11.5642 22.5524C13.8688 22.6574 16.1438 22.0004 18.0377 20.683C19.9315 19.3657 21.3388 17.4612 22.042 15.2641L20.564 14.8001ZM22.236 9.72006C21.7351 7.46816 20.5065 5.4439 18.7401 3.96009C16.9736 2.47629 14.7677 1.61553 12.4631 1.51082C10.1585 1.40612 7.88363 2.06331 5.98992 3.38083C4.09621 4.69835 2.6891 6.60286 1.98605 8.80006L3.41205 9.26406C4.01856 7.39114 5.22245 5.76874 6.83925 4.64548C8.45604 3.52223 10.3965 2.96009 12.3634 3.0452C14.3302 3.13031 16.2149 3.85798 17.7286 5.11669C19.2423 6.37541 20.3016 8.09574 20.744 10.0141L19.042 10.3521L22.282 13.6961L23.998 9.36806L22.236 9.72006Z" fill="#979797"/>
<path fill-rule="evenodd" clip-rule="evenodd" d="M12 11.25C11.8011 11.25 11.6103 11.329 11.4697 11.4697C11.329 11.6103 11.25 11.8011 11.25 12C11.25 12.1989 11.329 12.3897 11.4697 12.5303C11.6103 12.671 11.8011 12.75 12 12.75C12.1989 12.75 12.3897 12.671 12.5303 12.5303C12.671 12.3897 12.75 12.1989 12.75 12C12.75 11.8011 12.671 11.6103 12.5303 11.4697C12.3897 11.329 12.1989 11.25 12 11.25ZM9.75 12C9.75 11.4033 9.98705 10.831 10.409 10.409C10.831 9.98705 11.4033 9.75 12 9.75C12.5967 9.75 13.169 9.98705 13.591 10.409C14.0129 10.831 14.25 11.4033 14.25 12C14.25 12.5967 14.0129 13.169 13.591 13.591C13.169 14.0129 12.5967 14.25 12 14.25C11.4033 14.25 10.831 14.0129 10.409 13.591C9.98705 13.169 9.75 12.5967 9.75 12Z" fill="#979797"/>
</g>
<defs>
<clipPath id="clip0_3692_31596">
<rect width="24" height="24" fill="white"/>
</clipPath>
</defs>
</svg>
